<svg xmlns="http://www.w3.org/2000/svg" viewBox="0 0 128 128" role="img" aria-label="BudGanja circular cycle icon">
  <defs>
    <linearGradient id="paper" x1="14" y1="10" x2="114" y2="120" gradientUnits="userSpaceOnUse">
      <stop offset="0%" stop-color="#faf5e8"/>
      <stop offset="100%" stop-color="#efe4cc"/>
    </linearGradient>
    <linearGradient id="ringGreen" x1="20" y1="24" x2="106" y2="104" gradientUnits="userSpaceOnUse">
      <stop offset="0%" stop-color="#2c6244"/>
      <stop offset="100%" stop-color="#1f4f37"/>
    </linearGradient>
    <linearGradient id="ringGold" x1="26" y1="24" x2="98" y2="104" gradientUnits="userSpaceOnUse">
      <stop offset="0%" stop-color="#c9a766"/>
      <stop offset="100%" stop-color="#af8d50"/>
    </linearGradient>
    <linearGradient id="leaf" x1="48" y1="88" x2="82" y2="36" gradientUnits="userSpaceOnUse">
      <stop offset="0%" stop-color="#1f8a4b"/>
      <stop offset="58%" stop-color="#2ecc71"/>
      <stop offset="100%" stop-color="#9af0bc"/>
    </linearGradient>
  </defs>

  <rect width="128" height="128" rx="30" fill="url(#paper)"/>
  <rect x="7" y="7" width="114" height="114" rx="24" fill="none" stroke="#c2ad7a" stroke-width="2"/>

  <circle cx="64" cy="64" r="44" fill="none" stroke="url(#ringGreen)" stroke-width="10"/>
  <path d="M64 20a44 44 0 0 1 31.1 12.9" fill="none" stroke="url(#ringGold)" stroke-width="10" stroke-linecap="round"/>
  <path d="M95.1 32.9l2.8 10.7-10.7-2.8" fill="none" stroke="#af8d50" stroke-width="4" stroke-linecap="round" stroke-linejoin="round"/>
  <path d="M64 108a44 44 0 0 1-31.1-12.9" fill="none" stroke="url(#ringGold)" stroke-width="10" stroke-linecap="round"/>
  <path d="M32.9 95.1l-2.8-10.7 10.7 2.8" fill="none" stroke="#af8d50" stroke-width="4" stroke-linecap="round" stroke-linejoin="round"/>

  <circle cx="64" cy="64" r="22" fill="#f7f1e2" stroke="#2d5c40" stroke-width="5"/>
  <g fill="#2d5c40">
    <rect x="61" y="34" width="6" height="10" rx="2"/>
    <rect x="61" y="84" width="6" height="10" rx="2"/>
    <rect x="84" y="61" width="10" height="6" rx="2"/>
    <rect x="34" y="61" width="10" height="6" rx="2"/>
    <rect x="78.8" y="42.5" width="9" height="6" rx="2" transform="rotate(45 83.3 45.5)"/>
    <rect x="40.2" y="80.9" width="9" height="6" rx="2" transform="rotate(45 44.7 83.9)"/>
    <rect x="78.8" y="79.5" width="9" height="6" rx="2" transform="rotate(-45 83.3 82.5)"/>
    <rect x="40.2" y="41.1" width="9" height="6" rx="2" transform="rotate(-45 44.7 44.1)"/>
  </g>

  <path fill="url(#leaf)" d="M64 83c-6-8-18-13-27-10 4-12 13-21 27-26 14 5 23 14 27 26-9-3-21 2-27 10z"/>
  <path fill="none" stroke="#176739" stroke-width="2.5" stroke-linecap="round" d="M64 48v35M64 58c-10-2-16 5-14 14M64 58c10-2 16 5 14 14"/>
</svg>
