<?xml version="1.0" encoding="UTF-8"?>
<!DOCTYPE svg PUBLIC "-//W3C//DTD SVG 1.1//EN" "http://www.w3.org/Graphics/SVG/1.1/DTD/svg11.dtd">
<svg xmlns="http://www.w3.org/2000/svg" version="1.1" width="180px" height="180px" style="shape-rendering:geometricPrecision; text-rendering:geometricPrecision; image-rendering:optimizeQuality; fill-rule:evenodd; clip-rule:evenodd" xmlns:xlink="http://www.w3.org/1999/xlink">
<rect x="0" y="0" width="180" height="180" fill="#050d0d"/>
<g><path fill="#050d0d" stroke="#050d0d" stroke-width="0.5" d="M 0,0 C 60,0 120,0 180,0 C 180,60 180,120 180,180 C 120,180 60,180 0,180 C 0,120 0,60 0,0 Z M 47.14,54.02 C 46.11,59.18 46.14,64.33 47.21,69.47 C 47.27,71.18 48.1,71.8 49.7,71.34 C 50.51,71.22 51.19,70.86 51.73,70.27 C 51.52,68.36 51.3,66.43 51.09,64.5 C 51,62.34 51.02,60.18 51.16,58.02 C 51.63,54.39 52.59,50.88 54.02,47.51 C 60.13,33.8 70.62,25.97 85.5,24 C 100.32,23.11 111.9,28.79 120.25,41.07 C 120.69,41.65 120.7,42.22 120.28,42.78 C 119.06,43.25 117.83,43.69 116.59,44.1 C 116.18,44.38 116.08,44.73 116.3,45.16 C 119.83,46.95 123.39,48.69 126.98,50.38 C 127.94,50.72 128.51,50.39 128.69,49.38 C 129.4,45.47 130.02,41.55 130.54,37.61 C 130.05,37.27 129.56,37.29 129.04,37.65 C 128.18,38.37 127.27,39.03 126.32,39.63 C 125.86,39.8 125.43,39.75 125.03,39.47 C 119.71,30.65 112.19,24.52 102.47,21.11 C 93.02,18.07 83.63,18.24 74.29,21.6 C 59.63,27.69 50.57,38.5 47.14,54.02 Z M 87.77,35.91 C 87.8,37.44 87.86,38.97 87.95,40.5 C 88.56,41.92 89.17,41.89 89.76,40.42 C 89.85,38.46 89.89,36.49 89.87,34.52 C 89.87,33.6 89.43,33.11 88.53,33.05 C 88.35,33.21 88.17,33.38 87.99,33.54 C 87.82,34.32 87.75,35.11 87.77,35.91 Z M 74.35,36.4 C 75.24,38.62 76.32,40.74 77.61,42.77 C 77.96,43.55 78.55,43.93 79.37,43.91 C 79.76,43.69 79.88,43.37 79.72,42.96 C 78.71,41.24 77.75,39.49 76.85,37.71 C 76.33,36.69 75.5,36.26 74.35,36.4 Z M 98.03,42.99 C 98.42,43.99 99.02,44.1 99.81,43.31 C 100.72,41.55 101.68,39.81 102.67,38.1 C 103.03,37.4 102.93,36.81 102.39,36.3 C 101.74,36.35 101.29,36.69 101.03,37.3 C 99.96,39.16 98.96,41.05 98.03,42.99 Z M 71.96,61.01 C 72.41,62.15 73,62.27 73.72,61.37 C 73.83,54.88 76.8,50.18 82.62,47.29 C 87.96,45.2 93.08,45.65 97.97,48.63 C 100.78,50.64 102.73,53.28 103.82,56.54 C 104.27,58.3 104.61,60.07 104.84,61.84 C 105.32,62.04 105.69,61.91 105.95,61.44 C 106.38,58.53 105.85,55.8 104.37,53.24 C 100.83,47.16 95.54,44.06 88.5,43.94 C 79.93,44.78 74.54,49.36 72.31,57.67 C 72.06,58.77 71.95,59.88 71.96,61.01 Z M 65.36,46.63 C 67.18,47.96 69.05,49.21 70.98,50.37 C 71.59,50.73 72.16,50.71 72.69,50.3 C 72.79,49.84 72.66,49.46 72.32,49.15 C 70.6,47.94 68.85,46.81 67.05,45.74 C 66.08,45.3 65.52,45.6 65.36,46.63 Z M 105.22,50 C 105.9,50.57 106.61,50.57 107.34,49.98 C 108.74,48.95 110.2,48 111.71,47.13 C 112.16,46.74 112.3,46.26 112.11,45.69 C 111.73,45.35 111.33,45.31 110.89,45.59 C 109.32,46.68 107.71,47.71 106.06,48.7 C 105.63,49.03 105.35,49.47 105.22,50 Z M 87.2,52.06 C 83.59,59.72 83.21,67.53 86.04,75.48 C 86.6,77.15 87.32,78.75 88.21,80.27 C 88.46,80.64 88.79,80.74 89.2,80.59 C 90.14,79.16 90.91,77.64 91.5,76.01 C 92.24,74.07 92.78,72.07 93.14,70.02 C 93.27,68.18 93.43,66.34 93.63,64.5 C 93.32,61.78 92.81,59.11 92.1,56.47 C 91.27,53.99 90.32,51.57 89.24,49.21 C 88.76,49.05 88.4,49.19 88.15,49.63 C 87.88,50.46 87.56,51.27 87.2,52.06 Z M 103.88,97.93 C 101.77,99.03 99.59,99.97 97.33,100.72 C 95.93,101.19 94.5,101.34 93.03,101.18 C 90.79,98.72 90.41,95.96 91.87,92.91 C 95.72,86.4 101.43,82.81 109,82.15 C 110.08,81.89 110.63,82.28 110.66,83.32 C 107.68,89.34 102.95,93.24 96.47,95.01 C 95.63,96.05 95.84,96.7 97.11,96.95 C 98.6,96.27 100.14,95.79 101.74,95.5 C 105.73,93.89 108.86,91.25 111.11,87.59 C 112.44,85.56 113.51,83.41 114.32,81.13 C 114.58,80.41 114.32,79.99 113.53,79.88 C 111.18,79.72 108.84,79.75 106.49,79.99 C 102.56,80.82 98.61,81.56 94.64,82.2 C 93.65,82.53 92.65,82.84 91.65,83.15 C 91.28,83.4 91.23,83.7 91.49,84.05 C 92.17,84.37 92.85,84.67 93.56,84.93 C 93.66,85.14 93.76,85.34 93.87,85.55 C 92.77,87.33 91.59,89.08 90.34,90.8 C 90.07,91.47 89.57,91.75 88.86,91.64 C 88.3,91.02 87.78,90.38 87.3,89.7 C 86.04,87.94 84.74,86.23 83.4,84.57 C 83.85,84.61 84.31,84.66 84.77,84.71 C 85.4,84.66 85.78,84.34 85.92,83.75 C 84.55,82.53 82.93,82.04 81.08,82.28 C 78.56,81.41 75.99,80.7 73.38,80.17 C 70.92,79.83 68.45,79.75 65.98,79.9 C 65.23,79.73 64.64,79.96 64.23,80.57 C 66.16,86.52 69.73,91.21 74.95,94.65 C 77.35,95.87 79.87,96.67 82.53,97.04 C 84.06,96.93 84.43,96.21 83.61,94.87 C 81.94,92.29 79.81,90.18 77.22,88.53 C 76.76,88.27 76.31,88.28 75.89,88.58 C 77.52,90.22 79.15,91.9 80.79,93.63 C 80.12,93.96 79.43,93.94 78.72,93.56 C 74.06,91.82 70.59,88.74 68.29,84.33 C 67.91,83.6 67.85,82.86 68.11,82.09 C 75.38,82.33 81.19,85.36 85.54,91.18 C 87.28,93.84 88.66,96.68 89.67,99.7 C 90.29,101.02 89.91,101.79 88.52,102.01 C 77.09,101.92 67.63,97.55 60.14,88.9 C 59.41,88.13 58.74,87.32 58.14,86.46 C 57.84,86 57.71,85.5 57.74,84.96 C 59.09,84.15 60.44,83.33 61.77,82.49 C 61.56,82.07 61.23,81.77 60.78,81.62 C 57.66,80.08 54.51,78.61 51.33,77.22 C 50.49,76.82 49.78,76.96 49.21,77.64 C 48.75,81.87 48.4,86.09 48.17,90.32 C 48.45,90.58 48.73,90.57 49.02,90.29 C 50,89.46 51,88.67 52.03,87.91 C 52.36,87.72 52.7,87.66 53.06,87.75 C 54.33,89.21 55.56,90.71 56.74,92.26 C 65.18,101.78 75.77,106.62 88.5,106.79 C 95.98,106.63 102.86,104.53 109.15,100.49 C 111.63,98.71 114.02,96.84 116.34,94.88 C 116.59,94.6 116.9,94.5 117.26,94.59 C 117.98,95.07 118.64,95.63 119.24,96.25 C 119.22,97.2 119.33,98.13 119.57,99.03 C 120.61,100.13 121.65,101.23 122.71,102.32 C 126.2,105.32 129.63,108.39 132.99,111.53 C 134.49,113.07 136.29,113.81 138.39,113.73 C 139.25,113.52 139.93,113.05 140.43,112.32 C 140.94,110.93 140.81,109.61 140.03,108.35 C 137.61,105.66 134.99,103.15 132.19,100.84 C 130.33,99.18 128.49,97.52 126.65,95.85 C 125.54,95 124.34,94.3 123.05,93.75 C 122.18,93.62 121.37,93.35 120.6,92.94 C 120.01,92.25 119.9,91.49 120.26,90.66 C 128.42,81.09 131.94,70.05 130.83,57.54 C 130.64,56.2 129.88,55.73 128.55,56.12 C 127.48,56.2 126.68,56.68 126.15,57.56 C 126.45,61.73 126.21,65.86 125.41,69.97 C 122.08,82.23 114.9,91.55 103.88,97.93 Z M 61.89,57.93 C 62.02,58.78 62.53,59.23 63.42,59.27 C 64.8,59.36 66.16,59.53 67.51,59.8 C 68.3,59.92 68.99,59.73 69.58,59.23 C 69.63,58.48 69.27,58.07 68.51,58 C 66.3,57.8 64.09,57.77 61.89,57.93 Z M 108.82,58.99 C 109.2,59.51 109.71,59.73 110.35,59.66 C 112.07,59.36 113.79,59.19 115.54,59.17 C 117.17,58.71 117.17,58.26 115.56,57.83 C 113.55,57.76 111.55,57.85 109.56,58.09 C 109.17,58.27 108.92,58.57 108.82,58.99 Z M 77.77,78.64 C 78.67,79.16 79.61,79.61 80.58,79.98 C 82.65,80.5 84.7,80.95 86.74,81.34 C 86.62,80.06 86.19,78.89 85.43,77.82 C 82.62,72.02 78.25,67.84 72.33,65.29 C 70.13,64.58 67.93,63.93 65.72,63.34 C 65.61,63.42 65.5,63.51 65.4,63.6 C 66.77,66.6 68.43,69.46 70.36,72.16 C 72.38,74.84 74.85,77 77.77,78.64 Z M 90.97,81.01 C 90.95,81.34 91.08,81.59 91.37,81.74 C 92.52,81.11 93.75,80.77 95.06,80.71 C 97.68,79.7 100.18,78.47 102.57,77.03 C 104.4,75.57 106.04,73.92 107.49,72.08 C 109.4,69.35 111.09,66.5 112.56,63.54 C 112.36,63.2 112.06,63.07 111.66,63.17 C 109.45,63.98 107.22,64.75 104.99,65.5 C 100.75,67.37 97.27,70.19 94.56,73.95 C 93.4,75.85 92.28,77.77 91.19,79.72 C 91.05,80.13 90.97,80.56 90.97,81.01 Z M 99.85,90.33 C 101.27,90.39 102.25,89.74 102.78,88.4 C 102.67,88.27 102.57,88.13 102.46,88 C 101.06,88.16 100.19,88.93 99.85,90.33 Z M 46.97,118.01 C 46.9,118.86 47.12,119.61 47.65,120.26 C 48.2,120.21 48.53,119.91 48.64,119.35 C 48.78,117.85 48.73,116.35 48.5,114.87 C 48.15,114.25 47.71,114.16 47.19,114.61 C 47.02,115.73 46.95,116.87 46.97,118.01 Z M 54.5,114.5 C 54.1,115.8 53.94,117.14 54.02,118.51 C 53.97,119.14 54.17,119.67 54.63,120.09 C 54.86,120.08 55.1,120.06 55.33,120.05 C 55.68,119.43 56.08,118.87 56.53,118.36 C 57.31,118.79 58,119.35 58.59,120.04 C 58.84,120.06 59.08,120.08 59.32,120.1 C 59.8,119.69 60.02,119.16 59.99,118.53 C 59.92,117.25 59.84,115.97 59.76,114.69 C 59.34,114.25 58.95,114.28 58.59,114.78 C 58.73,115.59 58.62,116.33 58.25,117 C 57.76,117.09 57.27,117.1 56.77,117.02 C 56.85,115.42 56.1,114.58 54.5,114.5 Z M 65.23,115.92 C 65.49,116.4 65.82,116.82 66.2,117.21 C 67.05,117.65 67.89,118.1 68.72,118.55 C 67.75,118.74 66.84,119.08 65.98,119.54 C 66.23,120.31 66.76,120.73 67.58,120.82 C 68.74,120.88 69.6,120.41 70.16,119.4 C 70.41,118.81 70.36,118.25 70,117.71 C 69.25,117.25 68.56,116.73 67.91,116.14 C 68.49,115.84 69.11,115.6 69.77,115.42 C 69.46,114.31 68.72,113.86 67.54,114.07 C 66.48,114.31 65.71,114.93 65.23,115.92 Z M 76.9,119.01 C 77.01,119.65 77.27,120.22 77.66,120.72 C 78.2,120.06 78.78,119.43 79.39,118.83 C 80.29,118.44 81.09,117.92 81.78,117.25 C 82.16,115.86 81.69,114.87 80.37,114.27 C 79.49,114.01 78.6,113.97 77.7,114.16 C 77.26,114.44 77.04,114.85 77.04,115.38 C 76.98,116.59 76.93,117.8 76.9,119.01 Z M 87.82,119.09 C 88.41,120.76 89.58,121.33 91.33,120.8 C 91.81,120.55 92,120.17 91.89,119.64 C 91.09,119.11 90.23,118.74 89.28,118.52 C 90.08,118.19 90.88,117.85 91.67,117.49 C 90.97,116.99 90.2,116.66 89.34,116.51 C 89.96,116.19 90.61,115.94 91.29,115.76 C 92.21,114.73 91.95,114.14 90.51,114.01 C 89.61,113.89 88.79,114.09 88.07,114.61 C 87.83,116.09 87.74,117.58 87.82,119.09 Z M 98.33,114.34 C 98.3,114.64 98.34,114.93 98.45,115.21 C 99.95,116.22 100.48,117.64 100.05,119.45 C 100.19,120.58 100.69,120.79 101.53,120.09 C 101.76,118.93 101.89,117.75 101.91,116.56 C 102.38,115.96 102.77,115.32 103.09,114.65 C 102.7,114.18 102.19,113.96 101.56,113.98 C 100.46,113.92 99.38,114.04 98.33,114.34 Z M 108.29,117.07 C 108.46,119.11 109.54,120.34 111.51,120.76 C 114.45,120.32 115.49,118.68 114.63,115.84 C 113.44,114.05 111.89,113.62 109.97,114.57 C 109.16,115.23 108.6,116.06 108.29,117.07 Z M 124.17,119.64 C 124.08,120.24 124.29,120.43 124.79,120.23 C 125.06,119.63 124.9,119.34 124.32,119.36 C 124.58,118.39 124.86,117.42 125.17,116.46 C 125.05,114.83 124.16,114.02 122.49,114.05 C 121.64,113.95 120.92,114.19 120.33,114.78 C 120.1,116.01 120.01,117.25 120.07,118.51 C 120.02,119.11 120.21,119.61 120.63,120.03 C 121.3,119.95 121.93,119.75 122.54,119.42 C 123.08,119.55 123.62,119.62 124.17,119.64 Z M 148.24,124.76 C 150.22,124.12 150.57,124.65 149.31,126.35 C 150.1,126.7 150.9,126.68 151.72,126.29 C 153.44,125.73 154.74,124.65 155.62,123.05 C 156.34,121.55 157.02,120.05 157.68,118.54 C 157.09,118.05 156.41,117.91 155.64,118.12 C 152.84,118.7 150.64,120.15 149.01,122.48 C 148.6,123.19 148.35,123.95 148.24,124.76 Z M 140.76,123.89 C 141.57,125.98 142.99,126.49 145.01,125.44 C 146.11,124.16 146.09,122.89 144.96,121.63 C 142.53,120.47 141.13,121.22 140.76,123.89 Z M 18.75,125 C 18.73,131.17 18.8,137.33 18.96,143.48 C 19.3,144.02 19.79,144.27 20.43,144.25 C 23.46,144.23 26.49,144.2 29.51,144.14 C 33.67,143.85 35.8,141.64 35.89,137.51 C 35.88,136.72 35.67,135.99 35.27,135.31 C 34.57,134.39 33.87,133.47 33.19,132.56 C 33.56,131.66 34.06,130.83 34.7,130.07 C 35.48,125.74 33.69,123.15 29.34,122.28 C 26.4,122.15 23.45,122.08 20.5,122.08 C 19.92,122.01 19.43,122.2 19.04,122.63 C 18.78,123.4 18.68,124.19 18.75,125 Z M 56.85,136 C 57.1,141.45 59.93,144.35 65.36,144.7 C 66.81,144.42 68.19,143.94 69.5,143.25 C 70.16,143.55 70.82,143.85 71.48,144.16 C 72.45,144.34 73.39,144.23 74.29,143.84 C 74.65,143.45 74.8,142.99 74.74,142.46 C 74.82,135.91 74.77,129.36 74.61,122.81 C 74.04,122.23 73.33,121.99 72.49,122.08 C 71.64,121.96 70.91,122.18 70.3,122.75 C 70.11,124.34 70.05,125.95 70.12,127.56 C 70.12,128.09 69.91,128.51 69.51,128.83 C 68.57,128.43 67.64,128.03 66.7,127.62 C 62.62,126.86 59.61,128.31 57.66,131.98 C 57.12,133.26 56.85,134.6 56.85,136 Z M 77.68,134 C 78.39,140.5 82,144.09 88.52,144.78 C 90.54,144.82 92.48,144.45 94.34,143.65 C 95.99,142.58 97.74,141.74 99.59,141.14 C 99.97,138.37 99.98,135.6 99.62,132.83 C 99.47,132.7 99.31,132.58 99.15,132.45 C 96.62,132.32 94.07,132.28 91.53,132.32 C 89.89,132.13 89.11,132.85 89.18,134.49 C 89.12,135.02 89.29,135.47 89.69,135.81 C 91.28,136.05 92.87,136.16 94.48,136.15 C 95.49,136.35 95.72,136.9 95.17,137.8 C 92.49,140.51 89.4,141.13 85.89,139.68 C 82.99,137.6 81.94,134.82 82.74,131.34 C 84.13,127.38 86.9,125.74 91.05,126.43 C 92.62,127.18 94.11,128.05 95.51,129.03 C 99.21,128.55 99.68,127.1 96.93,124.68 C 93.34,121.89 89.37,121.21 85.03,122.63 C 80.05,124.77 77.6,128.56 77.68,134 Z M 102.21,139.93 C 102.57,142.57 104.06,144.14 106.69,144.62 C 108.82,144.88 110.81,144.46 112.66,143.37 C 113.56,143.77 114.49,144.07 115.45,144.29 C 116.95,144.54 117.78,143.94 117.93,142.5 C 117.91,139.5 117.88,136.51 117.84,133.51 C 117.32,129.74 115.14,127.71 111.31,127.42 C 107.95,127 105.33,128.16 103.44,130.91 C 103.39,131.55 103.68,132.02 104.3,132.29 C 104.93,132.72 105.62,132.87 106.36,132.74 C 107.09,132.29 107.82,131.86 108.56,131.43 C 109.97,130.96 111.28,131.15 112.48,132 C 113.4,133.26 113.11,134.05 111.6,134.36 C 109.28,134.09 107.07,134.43 104.94,135.38 C 103.22,136.4 102.31,137.92 102.21,139.93 Z M 121.22,142 C 121.01,143.72 121.77,144.48 123.5,144.3 C 124.98,144.54 125.79,143.94 125.94,142.5 C 125.78,139.53 125.9,136.58 126.3,133.64 C 127.57,131.58 129.31,131.04 131.53,132.02 C 132.14,132.39 132.57,132.92 132.81,133.6 C 133.02,136.86 133.13,140.12 133.14,143.39 C 133.4,143.94 133.83,144.23 134.44,144.26 C 135.44,144.4 136.39,144.26 137.3,143.87 C 137.64,143.46 137.79,142.99 137.74,142.45 C 137.76,139.52 137.74,136.59 137.67,133.67 C 136.96,128.89 134.2,126.85 129.4,127.57 C 128.43,128 127.46,128.44 126.49,128.88 C 125.03,127.69 123.43,127.44 121.69,128.13 C 121.31,128.52 121.16,128.99 121.22,129.53 C 121.24,133.69 121.24,137.84 121.22,142 Z M 147.97,140 C 148.18,142.49 149.51,144.01 151.98,144.54 C 152.99,144.79 154.01,144.82 155.03,144.63 C 156.19,144.22 157.35,143.8 158.49,143.37 C 159.74,144.2 161.08,144.45 162.53,144.13 C 163.1,143.78 163.38,143.26 163.38,142.59 C 163.5,138.88 163.37,135.19 162.97,131.51 C 161.84,128.94 159.85,127.58 157.02,127.43 C 154.88,127.21 152.88,127.62 151,128.65 C 149.94,129.26 149.33,130.17 149.17,131.35 C 150.68,133.27 152.26,133.33 153.92,131.53 C 155.52,130.81 156.96,131.04 158.24,132.2 C 159.14,133.25 158.92,133.95 157.57,134.3 C 154.91,134.03 152.4,134.51 150.04,135.74 C 148.6,136.79 147.91,138.21 147.97,140 Z M 38.26,131 C 38.24,133.68 38.29,136.35 38.41,139.03 C 38.95,142.52 40.98,144.41 44.5,144.68 C 46.23,144.54 47.85,144.06 49.36,143.22 C 50.33,143.87 51.39,144.21 52.55,144.26 C 53.2,144.29 53.7,144.03 54.05,143.49 C 54.27,138.81 54.33,134.13 54.26,129.43 C 53.93,127.97 52.99,127.42 51.46,127.8 C 50.83,127.78 50.34,128.03 50,128.54 C 49.92,131.71 49.8,134.88 49.62,138.05 C 48.74,140.23 47.18,141.02 44.95,140.42 C 44.07,140 43.46,139.34 43.12,138.43 C 42.92,135.46 42.86,132.48 42.96,129.49 C 42.79,128.06 41.97,127.5 40.5,127.8 C 39.87,127.78 39.28,127.91 38.72,128.18 C 38.28,129.05 38.12,130 38.26,131 Z M 138.01,149 C 138.36,150.63 139.36,151.15 141.02,150.54 C 142.93,150.24 144.27,149.2 145.02,147.43 C 145.35,146.07 145.53,144.69 145.55,143.3 C 145.56,138.72 145.56,134.15 145.57,129.58 C 145.67,128.72 145.32,128.14 144.53,127.84 C 143.84,127.68 143.15,127.66 142.45,127.76 C 141.85,127.81 141.4,128.09 141.1,128.61 C 141.03,134.21 140.93,139.81 140.82,145.42 C 140.72,145.89 140.47,146.25 140.06,146.5 C 138.65,146.76 137.97,147.59 138.01,149 Z M 61.53,136 C 61.73,132.98 63.32,131.5 66.33,131.55 C 69.48,132.31 70.7,134.3 70.01,137.51 C 69.14,139.83 67.47,140.84 64.98,140.53 C 62.68,139.91 61.53,138.4 61.53,136 Z M 23.23,138 C 23.08,136.99 23.25,136.06 23.72,135.2 C 25.87,134.7 28,134.79 30.09,135.46 C 31.44,136.84 31.47,138.25 30.2,139.7 C 28.04,140.44 25.86,140.51 23.66,139.91 C 23.25,139.34 23.11,138.7 23.23,138 Z M 84,148.02 C 84.58,150.01 85.89,151.18 87.93,151.55 C 89.56,151.44 91.01,150.89 92.28,149.91 C 93.55,147.58 92.96,146.91 90.53,147.88 C 89.81,147.4 89.13,146.85 88.5,146.23 C 87.98,146.62 87.56,147.11 87.23,147.7 C 86.37,147.77 85.52,147.67 84.68,147.41 C 84.33,147.48 84.1,147.68 84,148.02 Z M 31.3,156.07 C 31.47,157.75 32.38,158.82 34.03,159.29 C 34.42,159.51 34.84,159.64 35.28,159.68 C 35.48,159.2 35.63,158.69 35.74,158.16 C 36.34,158.44 36.97,158.67 37.61,158.87 C 40.11,159.04 42.58,158.86 45.03,158.34 C 45.55,158.54 46.09,158.71 46.63,158.85 C 48.92,158.83 51.21,158.82 53.5,158.83 C 54.16,158.66 54.83,158.51 55.5,158.4 C 56.49,158.8 57.52,159.06 58.58,159.19 C 59.15,159.25 59.58,159.04 59.85,158.55 C 59.5,157.98 59.01,157.52 58.4,157.19 C 58.17,155.48 57.25,154.89 55.64,155.41 C 55.3,155 54.91,154.65 54.46,154.37 C 53.51,154.85 52.56,155.34 51.62,155.81 C 50.52,155.33 49.42,154.86 48.32,154.4 C 47.17,154.82 46.04,155.21 44.91,155.57 C 44.61,154.95 44.16,154.5 43.56,154.21 C 42.41,154.76 41.23,155.22 40.01,155.58 C 39.92,156 39.77,156.39 39.58,156.77 C 39.29,156.21 38.95,155.69 38.56,155.21 C 38.23,155.73 37.9,156.24 37.58,156.75 C 36.79,155.52 35.72,154.62 34.38,154.05 C 32.9,153.98 31.87,154.65 31.3,156.07 Z M 65.09,155.79 C 64.66,153.97 63.61,153.54 61.94,154.5 C 60.25,156.75 60.76,158.22 63.48,158.93 C 65.81,159.04 68.11,158.79 70.39,158.18 C 72.05,158.33 73.71,158.56 75.35,158.86 C 75.99,158.59 76.66,158.43 77.34,158.36 C 77.65,157.9 78.03,157.51 78.47,157.18 C 78.86,157.67 79.22,158.18 79.53,158.73 C 79.88,158.23 80.22,157.72 80.56,157.22 C 80.89,157.73 81.22,158.26 81.54,158.79 C 81.86,158.3 82.15,157.79 82.41,157.26 C 82.73,157.83 83.16,158.29 83.68,158.65 C 88.25,158.81 92.81,158.87 97.36,158.84 C 98.03,158.37 98.4,157.72 98.47,156.89 C 98.53,156.37 98.35,155.96 97.93,155.66 C 97.19,155.28 96.42,155.21 95.62,155.46 C 95.29,155.03 94.92,154.65 94.51,154.32 C 93.82,154.86 93.08,155.33 92.3,155.72 C 91.67,155.7 91.07,155.55 90.51,155.26 C 90.16,155.7 89.87,156.18 89.63,156.7 C 89.45,155.74 89.06,154.9 88.45,154.18 C 87.45,154.51 86.5,154.96 85.59,155.52 C 85.21,155.1 84.85,154.67 84.51,154.22 C 84.18,154.65 83.81,155.02 83.4,155.35 C 81.28,155 79.16,155.05 77.04,155.5 C 75.44,155.32 73.98,154.83 72.64,154.05 C 72.16,154.45 71.73,154.88 71.34,155.36 C 69.76,155.28 68.18,155.2 66.61,155.12 C 66.01,155.12 65.5,155.34 65.09,155.79 Z M 104.36,155 C 104.99,156.1 105.23,157.27 105.08,158.52 C 105.25,158.63 105.42,158.74 105.58,158.86 C 109.7,158.96 113.81,158.93 117.91,158.78 C 118.45,158.62 118.99,158.51 119.54,158.46 C 119.84,158.04 120.15,157.63 120.47,157.23 C 121.19,158.35 122.24,158.87 123.65,158.79 C 125.56,158.79 127.46,158.82 129.37,158.87 C 129.94,158.72 130.51,158.56 131.07,158.39 C 132.94,158.54 134.8,158.71 136.65,158.9 C 138.28,158.87 139.91,158.74 141.51,158.49 C 143.22,158.75 144.93,158.88 146.62,158.89 C 147.12,158.91 147.51,158.71 147.79,158.3 C 148.35,157.14 148.18,156.14 147.26,155.3 C 146.71,155.24 146.17,155.3 145.64,155.49 C 145.27,155.09 144.89,154.71 144.48,154.35 C 143.51,154.88 142.52,155.37 141.51,155.82 C 140.46,155.32 139.4,154.85 138.32,154.41 C 137.34,154.58 136.42,154.95 135.58,155.52 C 135.03,155.25 134.58,154.85 134.22,154.31 C 133.69,154.05 133.12,153.95 132.53,154.02 C 131.81,154.51 131.13,155 130.47,155.51 C 129.59,155.01 128.68,154.62 127.73,154.35 C 127.32,154.77 126.92,155.19 126.53,155.63 C 126.25,155.52 125.95,155.44 125.64,155.4 C 125.31,155.88 124.94,156.33 124.53,156.74 C 124.32,156.06 123.98,155.47 123.49,154.98 C 121.16,155.08 118.83,155.24 116.5,155.46 C 114.62,154.87 112.73,154.88 110.82,155.5 C 110.33,155.86 109.88,156.27 109.47,156.74 C 109.15,156.27 108.8,155.82 108.43,155.39 C 108.04,155.56 107.67,155.76 107.32,156 C 106.88,156.16 106.55,156.04 106.35,155.63 C 107.15,154.58 106.91,154.09 105.63,154.17 C 105.14,154.35 104.72,154.63 104.36,155 Z M 99.99,157 C 100.38,158.77 101.18,159.03 102.42,157.77 C 103.19,156.09 102.67,155.34 100.85,155.51 C 100.31,155.86 100.03,156.35 99.99,157 Z M 18.11,156.88 C 21.26,157.06 24.42,157.12 27.58,157.05 C 29.25,156.76 29.23,156.41 27.52,156.01 C 24.55,155.92 21.59,155.97 18.64,156.15 C 18.31,156.29 18.13,156.53 18.11,156.88 Z M 151.11,156.86 C 154.6,157.03 158.08,157.1 161.58,157.08 C 163.25,156.75 163.24,156.38 161.53,155.98 C 158.23,155.93 154.94,156 151.66,156.19 C 151.34,156.31 151.15,156.53 151.11,156.86 Z"/></g>
<g><path fill="#5c6e23" stroke="#5c6e23" stroke-width="0.5" d="M 60.14,88.9 C 67.63,97.55 77.09,101.92 88.52,102.01 C 89.91,101.79 90.29,101.02 89.67,99.7 C 88.66,96.68 87.28,93.84 85.54,91.18 C 86.32,90.91 86.91,90.42 87.3,89.7 C 87.78,90.38 88.3,91.02 88.86,91.64 C 89.57,91.75 90.07,91.47 90.34,90.8 C 90.48,91.81 90.99,92.51 91.87,92.91 C 90.41,95.96 90.79,98.72 93.03,101.18 C 94.5,101.34 95.93,101.19 97.33,100.72 C 99.59,99.97 101.77,99.03 103.88,97.93 C 104.77,99.24 105.97,99.7 107.47,99.3 C 108.12,99.56 108.68,99.96 109.15,100.49 C 102.86,104.53 95.98,106.63 88.5,106.79 C 75.77,106.62 65.18,101.78 56.74,92.26 C 57.3,92.48 57.76,92.34 58.12,91.86 C 58.78,90.85 59.45,89.87 60.14,88.9 Z"/></g>
<g><path fill="#78882c" stroke="#78882c" stroke-width="0.5" d="M 90.97,81.01 C 90.97,80.56 91.05,80.13 91.19,79.72 C 92.28,77.77 93.4,75.85 94.56,73.95 C 97.27,70.19 100.75,67.37 104.99,65.5 C 107.22,64.75 109.45,63.98 111.66,63.17 C 112.06,63.07 112.36,63.2 112.56,63.54 C 111.09,66.5 109.4,69.35 107.49,72.08 C 106.04,73.92 104.4,75.57 102.57,77.03 C 100.18,78.47 97.68,79.7 95.06,80.71 C 93.75,80.77 92.52,81.11 91.37,81.74 C 91.08,81.59 90.95,81.34 90.97,81.01 Z M 60.14,88.9 C 59.45,89.87 58.78,90.85 58.12,91.86 C 57.76,92.34 57.3,92.48 56.74,92.26 C 55.56,90.71 54.33,89.21 53.06,87.75 C 52.7,87.66 52.36,87.72 52.03,87.91 C 51,88.67 50,89.46 49.02,90.29 C 48.73,90.57 48.45,90.58 48.17,90.32 C 48.4,86.09 48.75,81.87 49.21,77.64 C 49.78,76.96 50.49,76.82 51.33,77.22 C 54.51,78.61 57.66,80.08 60.78,81.62 C 61.23,81.77 61.56,82.07 61.77,82.49 C 60.44,83.33 59.09,84.15 57.74,84.96 C 57.71,85.5 57.84,86 58.14,86.46 C 58.74,87.32 59.41,88.13 60.14,88.9 Z"/></g>
<g><path fill="#70812a" stroke="#70812a" stroke-width="0.5" d="M 56.85,136 C 57.06,130.94 59.65,128.07 64.64,127.37 C 65.34,127.36 66.02,127.44 66.7,127.62 C 67.64,128.03 68.57,128.43 69.51,128.83 C 69.91,128.51 70.12,128.09 70.12,127.56 C 70.05,125.95 70.11,124.34 70.3,122.75 C 70.91,122.18 71.64,121.96 72.49,122.08 C 73.33,121.99 74.04,122.23 74.61,122.81 C 74.77,129.36 74.82,135.91 74.74,142.46 C 74.8,142.99 74.65,143.45 74.29,143.84 C 73.39,144.23 72.45,144.34 71.48,144.16 C 70.82,143.85 70.16,143.55 69.5,143.25 C 65.13,145.65 61.37,144.93 58.23,141.07 C 57.26,139.52 56.8,137.83 56.85,136 Z M 61.53,136 C 61.68,139.06 63.28,140.61 66.35,140.64 C 68.25,140.37 69.47,139.32 70.01,137.51 C 70.65,133.55 68.99,131.58 65.02,131.59 C 62.76,132.17 61.6,133.64 61.53,136 Z"/></g>
<g><path fill="#7d8d2d" stroke="#7d8d2d" stroke-width="0.5" d="M 85.43,77.82 C 85.23,78.61 84.74,78.98 83.94,78.92 C 82.31,77.43 80.68,75.93 79.06,74.44 C 78.64,74.06 78.15,73.92 77.59,74.01 C 77.47,74.16 77.35,74.32 77.24,74.47 C 77.53,75.55 77.78,76.64 78,77.74 C 77.92,78.04 77.85,78.34 77.77,78.64 C 74.85,77 72.38,74.84 70.36,72.16 C 68.43,69.46 66.77,66.6 65.4,63.6 C 65.5,63.51 65.61,63.42 65.72,63.34 C 67.93,63.93 70.13,64.58 72.33,65.29 C 78.25,67.84 82.62,72.02 85.43,77.82 Z"/></g>
<g><path fill="#d9ab3a" d="M 71.96,61.01 C 72.27,53.89 75.62,48.71 81.98,45.5 C 86.4,43.55 90.87,43.43 95.39,45.14 C 101.73,47.87 105.32,52.65 106.16,59.49 C 106.24,60.16 106.17,60.81 105.95,61.44 C 105.69,61.91 105.32,62.04 104.84,61.84 C 104.61,60.07 104.27,58.3 103.82,56.54 C 102.73,53.28 100.78,50.64 97.97,48.63 C 93.08,45.65 87.96,45.2 82.62,47.29 C 76.8,50.18 73.83,54.88 73.72,61.37 C 73,62.27 72.41,62.15 71.96,61.01 Z M 105.22,50 C 105.35,49.47 105.63,49.03 106.06,48.7 C 107.71,47.71 109.32,46.68 110.89,45.59 C 111.33,45.31 111.73,45.35 112.11,45.69 C 112.3,46.26 112.16,46.74 111.71,47.13 C 109.92,48.27 108.12,49.37 106.3,50.42 C 105.85,50.51 105.49,50.36 105.22,50 Z"/></g>
<g><path fill="#899831" d="M 93.14,70.02 C 92.67,69.99 92.31,69.78 92.06,69.36 C 91.93,68.65 91.76,67.96 91.53,67.3 C 90.33,68.07 89.5,67.8 89.04,66.49 C 88.94,62.49 88.85,58.49 88.76,54.48 C 88.68,53.72 88.49,52.98 88.19,52.28 C 87.92,51.93 87.59,51.86 87.2,52.06 C 87.56,51.27 87.88,50.46 88.15,49.63 C 88.4,49.19 88.76,49.05 89.24,49.21 C 90.32,51.57 91.27,53.99 92.1,56.47 C 92.81,59.11 93.32,61.78 93.63,64.5 C 93.43,66.34 93.27,68.18 93.14,70.02 Z"/></g>
<g><path fill="#80902f" d="M 65.98,79.9 C 68.45,79.75 70.92,79.83 73.38,80.17 C 75.99,80.7 78.56,81.41 81.08,82.28 C 82.93,82.04 84.55,82.53 85.92,83.75 C 85.78,84.34 85.4,84.66 84.77,84.71 C 84.31,84.66 83.85,84.61 83.4,84.57 C 84.74,86.23 86.04,87.94 87.3,89.7 C 86.91,90.42 86.32,90.91 85.54,91.18 C 81.19,85.36 75.38,82.33 68.11,82.09 C 67.54,81.23 66.83,80.5 65.98,79.9 Z"/></g>
<g><path fill="#617324" d="M 65.98,79.9 C 66.83,80.5 67.54,81.23 68.11,82.09 C 67.85,82.86 67.91,83.6 68.29,84.33 C 70.59,88.74 74.06,91.82 78.72,93.56 C 79.43,93.94 80.12,93.96 80.79,93.63 C 79.15,91.9 77.52,90.22 75.89,88.58 C 76.31,88.28 76.76,88.27 77.22,88.53 C 79.81,90.18 81.94,92.29 83.61,94.87 C 84.43,96.21 84.06,96.93 82.53,97.04 C 79.87,96.67 77.35,95.87 74.95,94.65 C 69.73,91.21 66.16,86.52 64.23,80.57 C 64.64,79.96 65.23,79.73 65.98,79.9 Z"/></g>
<g><path fill="#808f2f" stroke="#808f2f" stroke-width="0.5" d="M 123.05,93.75 C 124.34,94.3 125.54,95 126.65,95.85 C 128.49,97.52 130.33,99.18 132.19,100.84 C 131.62,101.99 130.97,103.07 130.23,104.09 C 128.26,102.86 126.47,101.39 124.88,99.7 C 123.83,98.41 122.65,97.27 121.34,96.28 C 121.34,96.09 121.35,95.9 121.35,95.7 C 122.01,95.12 122.57,94.47 123.05,93.75 Z"/></g>
<g><path fill="#6c7d28" stroke="#6c7d28" stroke-width="0.5" d="M 123.05,93.75 C 122.57,94.47 122.01,95.12 121.35,95.7 C 121.35,95.9 121.34,96.09 121.34,96.28 C 122.65,97.27 123.83,98.41 124.88,99.7 C 124.19,100.6 123.47,101.47 122.71,102.32 C 121.65,101.23 120.61,100.13 119.57,99.03 C 119.33,98.13 119.22,97.2 119.24,96.25 C 118.64,95.63 117.98,95.07 117.26,94.59 C 116.9,94.5 116.59,94.6 116.34,94.88 C 114.02,96.84 111.63,98.71 109.15,100.49 C 108.68,99.96 108.12,99.56 107.47,99.3 C 105.97,99.7 104.77,99.24 103.88,97.93 C 114.9,91.55 122.08,82.23 125.41,69.97 C 126.21,65.86 126.45,61.73 126.15,57.56 C 126.68,56.68 127.48,56.2 128.55,56.12 C 129.88,55.73 130.64,56.2 130.83,57.54 C 131.94,70.05 128.42,81.09 120.26,90.66 C 119.9,91.49 120.01,92.25 120.6,92.94 C 121.37,93.35 122.18,93.62 123.05,93.75 Z"/></g>
<g><path fill="#687826" stroke="#687826" stroke-width="0.5" d="M 132.19,100.84 C 134.99,103.15 137.61,105.66 140.03,108.35 C 140.81,109.61 140.94,110.93 140.43,112.32 C 139.76,111.95 139.22,111.42 138.82,110.76 C 136.5,109.86 134.41,108.57 132.55,106.89 C 131.54,106.14 130.77,105.21 130.23,104.09 C 130.97,103.07 131.62,101.99 132.19,100.84 Z"/></g>
<g><path fill="#697a28" d="M 148.24,124.76 C 148.62,122.72 149.68,121.12 151.41,119.95 C 152.74,119.17 154.15,118.56 155.64,118.12 C 156.41,117.91 157.09,118.05 157.68,118.54 C 156.84,120.8 155.7,122.89 154.25,124.81 C 153.15,125.83 151.84,126.44 150.34,126.63 C 149.94,126.7 149.6,126.61 149.31,126.35 C 150.57,124.65 150.22,124.12 148.24,124.76 Z"/></g>
<g><path fill="#617224" d="M 85.43,77.82 C 86.19,78.89 86.62,80.06 86.74,81.34 C 84.7,80.95 82.65,80.5 80.58,79.98 C 79.61,79.61 78.67,79.16 77.77,78.64 C 77.85,78.34 77.92,78.04 78,77.74 C 77.78,76.64 77.53,75.55 77.24,74.47 C 77.35,74.32 77.47,74.16 77.59,74.01 C 78.15,73.92 78.64,74.06 79.06,74.44 C 80.68,75.93 82.31,77.43 83.94,78.92 C 84.74,78.98 85.23,78.61 85.43,77.82 Z"/></g>
<g><path fill="#aaa288" d="M 108.29,117.07 C 108.86,114.94 110.23,113.95 112.41,114.11 C 114.43,114.84 115.26,116.25 114.89,118.36 C 113.68,120.78 111.91,121.31 109.59,119.95 C 108.83,119.14 108.4,118.18 108.29,117.07 Z M 109.95,116.93 C 109.96,118.62 110.78,119.3 112.4,118.96 C 113.48,117.98 113.5,116.98 112.45,115.97 C 111.37,115.7 110.53,116.02 109.95,116.93 Z"/></g>
<g><path fill="#b2a98e" d="M 124.32,119.36 C 124.27,119.45 124.22,119.55 124.17,119.64 C 123.62,119.62 123.08,119.55 122.54,119.42 C 121.93,119.75 121.3,119.95 120.63,120.03 C 120.21,119.61 120.02,119.11 120.07,118.51 C 120.01,117.25 120.1,116.01 120.33,114.78 C 120.92,114.19 121.64,113.95 122.49,114.05 C 124.16,114.02 125.05,114.83 125.17,116.46 C 124.86,117.42 124.58,118.39 124.32,119.36 Z M 122.07,116.97 C 122.72,117.12 123.28,116.98 123.75,116.56 C 122.93,115.77 122.37,115.91 122.07,116.97 Z"/></g>
<g><path fill="#aca388" d="M 76.9,119.01 C 76.93,117.8 76.98,116.59 77.04,115.38 C 77.04,114.85 77.26,114.44 77.7,114.16 C 79.43,113.71 80.8,114.2 81.81,115.63 C 82.03,116.17 82.02,116.71 81.78,117.25 C 81.09,117.92 80.29,118.44 79.39,118.83 C 78.78,119.43 78.2,120.06 77.66,120.72 C 77.27,120.22 77.01,119.65 76.9,119.01 Z M 78.96,116.77 C 79.36,116.9 79.66,116.79 79.86,116.45 C 79.39,116.02 79.09,116.13 78.96,116.77 Z"/></g>
<g><path fill="#b4ab92" d="M 54.5,114.5 C 54.87,115.27 55.28,116.02 55.73,116.74 C 56.06,116.92 56.41,117.01 56.77,117.02 C 57.27,117.1 57.76,117.09 58.25,117 C 58.62,116.33 58.73,115.59 58.59,114.78 C 58.95,114.28 59.34,114.25 59.76,114.69 C 59.84,115.97 59.92,117.25 59.99,118.53 C 60.02,119.16 59.8,119.69 59.32,120.1 C 59.08,120.08 58.84,120.06 58.59,120.04 C 58,119.35 57.31,118.79 56.53,118.36 C 56.08,118.87 55.68,119.43 55.33,120.05 C 55.1,120.06 54.86,120.08 54.63,120.09 C 54.17,119.67 53.97,119.14 54.02,118.51 C 53.94,117.14 54.1,115.8 54.5,114.5 Z"/></g>
<g><path fill="#a29a82" d="M 65.23,115.92 C 66.11,114.27 67.44,113.74 69.19,114.33 C 69.58,114.59 69.78,114.95 69.77,115.42 C 69.11,115.6 68.49,115.84 67.91,116.14 C 68.56,116.73 69.25,117.25 70,117.71 C 70.54,118.92 70.24,119.85 69.08,120.52 C 68.03,121.03 67.06,120.91 66.18,120.15 C 66.12,119.95 66.05,119.75 65.98,119.54 C 66.84,119.08 67.75,118.74 68.72,118.55 C 67.89,118.1 67.05,117.65 66.2,117.21 C 65.82,116.82 65.49,116.4 65.23,115.92 Z"/></g>
<g><path fill="#a59e84" d="M 87.82,119.09 C 87.74,117.58 87.83,116.09 88.07,114.61 C 88.79,114.09 89.61,113.89 90.51,114.01 C 91.95,114.14 92.21,114.73 91.29,115.76 C 90.61,115.94 89.96,116.19 89.34,116.51 C 90.2,116.66 90.97,116.99 91.67,117.49 C 90.88,117.85 90.08,118.19 89.28,118.52 C 90.23,118.74 91.09,119.11 91.89,119.64 C 92,120.17 91.81,120.55 91.33,120.8 C 89.58,121.33 88.41,120.76 87.82,119.09 Z"/></g>
<g><path fill="#d7cba8" d="M 140.76,123.89 C 141.13,121.22 142.53,120.47 144.96,121.63 C 146.09,122.89 146.11,124.16 145.01,125.44 C 142.99,126.49 141.57,125.98 140.76,123.89 Z"/></g>
<g><path fill="#a79f85" d="M 98.33,114.34 C 99.38,114.04 100.46,113.92 101.56,113.98 C 102.19,113.96 102.7,114.18 103.09,114.65 C 102.77,115.32 102.38,115.96 101.91,116.56 C 101.89,117.75 101.76,118.93 101.53,120.09 C 100.69,120.79 100.19,120.58 100.05,119.45 C 100.48,117.64 99.95,116.22 98.45,115.21 C 98.34,114.93 98.3,114.64 98.33,114.34 Z"/></g>
<g><path fill="#cba842" d="M 87.77,35.91 C 87.75,35.11 87.82,34.32 87.99,33.54 C 88.29,33.02 88.71,32.88 89.25,33.14 C 89.7,33.49 89.9,33.95 89.87,34.52 C 89.89,36.49 89.85,38.46 89.76,40.42 C 89.17,41.89 88.56,41.92 87.95,40.5 C 87.86,38.97 87.8,37.44 87.77,35.91 Z"/></g>
<g><path fill="#d0ab3b" d="M 74.35,36.4 C 75.5,36.26 76.33,36.69 76.85,37.71 C 77.75,39.49 78.71,41.24 79.72,42.96 C 79.79,43.7 79.45,44.02 78.7,43.93 C 78.21,43.67 77.84,43.28 77.61,42.77 C 76.32,40.74 75.24,38.62 74.35,36.4 Z"/></g>
<g><path fill="#c8a640" d="M 98.03,42.99 C 98.96,41.05 99.96,39.16 101.03,37.3 C 101.42,36.32 102.01,36.11 102.82,36.68 C 102.97,37.17 102.92,37.65 102.67,38.1 C 101.68,39.81 100.72,41.55 99.81,43.31 C 99.02,44.1 98.42,43.99 98.03,42.99 Z"/></g>
<g><path fill="#c08926" d="M 65.36,46.63 C 65.52,45.6 66.08,45.3 67.05,45.74 C 68.85,46.81 70.6,47.94 72.32,49.15 C 72.83,49.68 72.82,50.17 72.28,50.63 C 71.82,50.69 71.39,50.6 70.98,50.37 C 69.05,49.21 67.18,47.96 65.36,46.63 Z"/></g>
<g><path fill="#8e8a77" d="M 46.97,118.01 C 46.95,116.87 47.02,115.73 47.19,114.61 C 47.71,114.16 48.15,114.25 48.5,114.87 C 48.73,116.35 48.78,117.85 48.64,119.35 C 48.53,119.91 48.2,120.21 47.65,120.26 C 47.12,119.61 46.9,118.86 46.97,118.01 Z"/></g>
<g><path fill="#cb8a24" d="M 61.89,57.93 C 64.36,57.72 66.82,57.83 69.26,58.25 C 69.61,58.5 69.72,58.82 69.58,59.23 C 68.99,59.73 68.3,59.92 67.51,59.8 C 65.84,59.52 64.17,59.26 62.5,59.03 C 62.07,58.78 61.87,58.41 61.89,57.93 Z"/></g>
<g><path fill="#d89a28" d="M 108.82,58.99 C 109.12,58.27 109.66,57.9 110.46,57.9 C 112.16,57.82 113.86,57.8 115.56,57.83 C 117.17,58.26 117.17,58.71 115.54,59.17 C 113.79,59.19 112.07,59.36 110.35,59.66 C 109.71,59.73 109.2,59.51 108.82,58.99 Z"/></g>
<g><path fill="#c9bea0" d="M 56.77,117.02 C 56.41,117.01 56.06,116.92 55.73,116.74 C 55.28,116.02 54.87,115.27 54.5,114.5 C 56.1,114.58 56.85,115.42 56.77,117.02 Z"/></g>
<g><path fill="#a79e87" d="M 124.32,119.36 C 124.9,119.34 125.06,119.63 124.79,120.23 C 124.29,120.43 124.08,120.24 124.17,119.64 C 124.22,119.55 124.27,119.45 124.32,119.36 Z"/></g>
<g><path fill="#d5c9a5" stroke="#d5c9a5" stroke-width="0.5" d="M 77.68,134 C 77.77,127.39 81.04,123.4 87.5,122 C 91.05,121.49 94.19,122.38 96.93,124.68 C 99.68,127.1 99.21,128.55 95.51,129.03 C 94.11,128.05 92.62,127.18 91.05,126.43 C 85.76,125.81 82.88,128.17 82.4,133.5 C 82.98,138.44 85.74,140.73 90.68,140.34 C 92.47,140.01 93.97,139.17 95.17,137.8 C 95.72,136.9 95.49,136.35 94.48,136.15 C 92.87,136.16 91.28,136.05 89.69,135.81 C 89.08,134.91 89.01,133.94 89.48,132.92 C 90.08,132.46 90.76,132.26 91.53,132.32 C 94.07,132.28 96.62,132.32 99.15,132.45 C 99.74,132.99 99.98,133.67 99.89,134.5 C 99.98,136.73 99.88,138.94 99.59,141.14 C 97.74,141.74 95.99,142.58 94.34,143.65 C 89.99,145.49 85.85,145.09 81.94,142.46 C 79.24,140.28 77.82,137.46 77.68,134 Z M 102.21,139.93 C 102.64,136.57 104.56,134.74 107.99,134.44 C 109.51,134.4 111.03,134.3 112.54,134.12 C 113.1,133.42 113.08,132.71 112.48,132 C 111.28,131.15 109.97,130.96 108.56,131.43 C 107.82,131.86 107.09,132.29 106.36,132.74 C 105.62,132.87 104.93,132.72 104.3,132.29 C 103.68,132.02 103.39,131.55 103.44,130.91 C 105.33,128.16 107.95,127 111.31,127.42 C 115.14,127.71 117.32,129.74 117.84,133.51 C 117.88,136.51 117.91,139.5 117.93,142.5 C 117.78,143.94 116.95,144.54 115.45,144.29 C 114.49,144.07 113.56,143.77 112.66,143.37 C 109.51,145.31 106.47,145.19 103.53,143.02 C 102.84,142.1 102.4,141.07 102.21,139.93 Z M 121.22,142 C 121.24,137.84 121.24,133.69 121.22,129.53 C 121.16,128.99 121.31,128.52 121.69,128.13 C 123.43,127.44 125.03,127.69 126.49,128.88 C 127.46,128.44 128.43,128 129.4,127.57 C 134.2,126.85 136.96,128.89 137.67,133.67 C 137.74,136.59 137.76,139.52 137.74,142.45 C 137.79,142.99 137.64,143.46 137.3,143.87 C 136.39,144.26 135.44,144.4 134.44,144.26 C 133.83,144.23 133.4,143.94 133.14,143.39 C 133.13,140.12 133.02,136.86 132.81,133.6 C 131.55,131.43 129.81,130.94 127.58,132.13 C 126.96,132.47 126.54,132.98 126.3,133.64 C 125.9,136.58 125.78,139.53 125.94,142.5 C 125.79,143.94 124.98,144.54 123.5,144.3 C 121.77,144.48 121.01,143.72 121.22,142 Z M 147.97,140 C 148.35,136.47 150.35,134.6 153.97,134.4 C 155.17,134.33 156.37,134.29 157.57,134.3 C 158.92,133.95 159.14,133.25 158.24,132.2 C 156.96,131.04 155.52,130.81 153.92,131.53 C 152.26,133.33 150.68,133.27 149.17,131.35 C 149.33,130.17 149.94,129.26 151,128.65 C 154.06,127.02 157.17,126.93 160.32,128.38 C 162.55,129.79 163.56,131.84 163.35,134.5 C 163.37,137.2 163.38,139.89 163.38,142.59 C 163.03,144.15 162.07,144.68 160.49,144.2 C 159.82,143.92 159.15,143.65 158.49,143.37 C 157.35,143.8 156.19,144.22 155.03,144.63 C 152.9,145 150.97,144.51 149.27,143.16 C 148.48,142.26 148.05,141.2 147.97,140 Z M 138.01,149 C 137.97,147.59 138.65,146.76 140.06,146.5 C 140.47,146.25 140.72,145.89 140.82,145.42 C 140.93,139.81 141.03,134.21 141.1,128.61 C 141.4,128.09 141.85,127.81 142.45,127.76 C 143.44,127.6 144.36,127.74 145.23,128.21 C 145.53,128.62 145.64,129.07 145.57,129.58 C 145.56,134.15 145.56,138.72 145.55,143.3 C 145.53,144.69 145.35,146.07 145.02,147.43 C 143.72,149.92 141.65,150.97 138.83,150.57 C 138.29,150.19 138.02,149.67 138.01,149 Z M 107.01,139.01 C 107.04,140.62 107.86,141.37 109.49,141.26 C 111.47,141.29 112.68,140.36 113.12,138.49 C 113.16,137.87 112.89,137.47 112.33,137.27 C 110.96,137.22 109.62,137.36 108.3,137.68 C 107.7,137.97 107.27,138.41 107.01,139.01 Z M 152.55,139.01 C 152.72,140.73 153.7,141.49 155.47,141.29 C 157.67,141.12 158.77,139.94 158.75,137.77 C 158.45,137.36 158.03,137.19 157.51,137.26 C 156.05,137.08 154.68,137.32 153.38,137.97 C 153.02,138.25 152.74,138.6 152.55,139.01 Z"/></g>
<g><path fill="#819131" stroke="#819131" stroke-width="0.5" d="M 51.16,58.02 C 50.78,57.88 50.48,57.63 50.25,57.29 C 50.15,55.9 49.9,54.56 49.5,53.28 C 49.22,54.11 48.86,54.91 48.43,55.67 C 48.22,55.11 47.96,54.57 47.65,54.06 C 47.48,54.05 47.31,54.04 47.14,54.02 C 50.57,38.5 59.63,27.69 74.29,21.6 C 83.63,18.24 93.02,18.07 102.47,21.11 C 112.19,24.52 119.71,30.65 125.03,39.47 C 125.43,39.75 125.86,39.8 126.32,39.63 C 127.27,39.03 128.18,38.37 129.04,37.65 C 129.56,37.29 130.05,37.27 130.54,37.61 C 130.02,41.55 129.4,45.47 128.69,49.38 C 128.51,50.39 127.94,50.72 126.98,50.38 C 123.39,48.69 119.83,46.95 116.3,45.16 C 116.08,44.73 116.18,44.38 116.59,44.1 C 117.83,43.69 119.06,43.25 120.28,42.78 C 120.7,42.22 120.69,41.65 120.25,41.07 C 111.9,28.79 100.32,23.11 85.5,24 C 70.62,25.97 60.13,33.8 54.02,47.51 C 52.59,50.88 51.63,54.39 51.16,58.02 Z"/></g>
<g><path fill="#75862b" stroke="#75862b" stroke-width="0.5" d="M 87.2,52.06 C 87.59,51.86 87.92,51.93 88.19,52.28 C 88.49,52.98 88.68,53.72 88.76,54.48 C 88.85,58.49 88.94,62.49 89.04,66.49 C 89.5,67.8 90.33,68.07 91.53,67.3 C 91.76,67.96 91.93,68.65 92.06,69.36 C 92.31,69.78 92.67,69.99 93.14,70.02 C 92.78,72.07 92.24,74.07 91.5,76.01 C 90.91,77.64 90.14,79.16 89.2,80.59 C 88.79,80.74 88.46,80.64 88.21,80.27 C 87.32,78.75 86.6,77.15 86.04,75.48 C 83.21,67.53 83.59,59.72 87.2,52.06 Z M 51.16,58.02 C 51.02,60.18 51,62.34 51.09,64.5 C 51.3,66.43 51.52,68.36 51.73,70.27 C 51.19,70.86 50.51,71.22 49.7,71.34 C 48.1,71.8 47.27,71.18 47.21,69.47 C 46.14,64.33 46.11,59.18 47.14,54.02 C 47.31,54.04 47.48,54.05 47.65,54.06 C 47.96,54.57 48.22,55.11 48.43,55.67 C 48.86,54.91 49.22,54.11 49.5,53.28 C 49.9,54.56 50.15,55.9 50.25,57.29 C 50.48,57.63 50.78,57.88 51.16,58.02 Z"/></g>
<g><path fill="#72832b" stroke="#72832b" stroke-width="0.5" d="M 114.32,81.13 C 112.78,81.58 111.23,81.63 109.66,81.28 C 109.25,81.42 109.03,81.71 109,82.15 C 101.43,82.81 95.72,86.4 91.87,92.91 C 90.99,92.51 90.48,91.81 90.34,90.8 C 91.59,89.08 92.77,87.33 93.87,85.55 C 93.76,85.34 93.66,85.14 93.56,84.93 C 92.85,84.67 92.17,84.37 91.49,84.05 C 91.23,83.7 91.28,83.4 91.65,83.15 C 92.65,82.84 93.65,82.53 94.64,82.2 C 98.61,81.56 102.56,80.82 106.49,79.99 C 108.84,79.75 111.18,79.72 113.53,79.88 C 114.32,79.99 114.58,80.41 114.32,81.13 Z M 18.75,125 C 18.68,124.19 18.78,123.4 19.04,122.63 C 19.43,122.2 19.92,122.01 20.5,122.08 C 23.45,122.08 26.4,122.15 29.34,122.28 C 33.69,123.15 35.48,125.74 34.7,130.07 C 34.06,130.83 33.56,131.66 33.19,132.56 C 33.87,133.47 34.57,134.39 35.27,135.31 C 36.73,139.06 35.66,141.84 32.06,143.64 C 31.23,143.9 30.38,144.07 29.51,144.14 C 26.49,144.2 23.46,144.23 20.43,144.25 C 19.79,144.27 19.3,144.02 18.96,143.48 C 18.8,137.33 18.73,131.17 18.75,125 Z M 23.22,129 C 23.1,129.69 23.26,130.31 23.68,130.85 C 24.94,131.18 26.22,131.28 27.52,131.14 C 29.32,131.15 30.21,130.26 30.2,128.48 C 30.09,127.67 29.7,127.03 29.03,126.57 C 27.57,126.11 26.07,125.98 24.53,126.16 C 24.03,126.16 23.65,126.38 23.4,126.81 C 23.27,127.53 23.21,128.26 23.22,129 Z M 38.26,131 C 38.12,130 38.28,129.05 38.72,128.18 C 39.93,127.71 41.15,127.67 42.39,128.05 C 42.82,128.43 43.01,128.91 42.96,129.49 C 42.86,132.48 42.92,135.46 43.12,138.43 C 44.35,140.77 46.1,141.27 48.35,139.91 C 48.92,139.39 49.34,138.77 49.62,138.05 C 49.8,134.88 49.92,131.71 50,128.54 C 50.34,128.03 50.83,127.78 51.46,127.8 C 52.99,127.42 53.93,127.97 54.26,129.43 C 54.33,134.13 54.27,138.81 54.05,143.49 C 53.7,144.03 53.2,144.29 52.55,144.26 C 51.39,144.21 50.33,143.87 49.36,143.22 C 47.85,144.06 46.23,144.54 44.5,144.68 C 40.98,144.41 38.95,142.52 38.41,139.03 C 38.29,136.35 38.24,133.68 38.26,131 Z M 23.23,138 C 23.11,138.7 23.25,139.34 23.66,139.91 C 25.86,140.51 28.04,140.44 30.2,139.7 C 31.47,138.25 31.44,136.84 30.09,135.46 C 28,134.79 25.87,134.7 23.72,135.2 C 23.25,136.06 23.08,136.99 23.23,138 Z"/></g>
<g><path fill="#687926" d="M 114.32,81.13 C 113.51,83.41 112.44,85.56 111.11,87.59 C 108.86,91.25 105.73,93.89 101.74,95.5 C 100.14,95.79 98.6,96.27 97.11,96.95 C 95.84,96.7 95.63,96.05 96.47,95.01 C 102.95,93.24 107.68,89.34 110.66,83.32 C 110.63,82.28 110.08,81.89 109,82.15 C 109.03,81.71 109.25,81.42 109.66,81.28 C 111.23,81.63 112.78,81.58 114.32,81.13 Z"/></g>
<g><path fill="#3b4521" d="M 65.09,155.79 C 64.41,155.23 63.67,155.14 62.88,155.51 C 62.49,155.95 62.45,156.44 62.75,156.97 C 63.02,157.45 63.43,157.63 63.96,157.5 C 64.6,157.1 64.97,156.53 65.09,155.79 C 65.5,155.34 66.01,155.12 66.61,155.12 C 68.18,155.2 69.76,155.28 71.34,155.36 C 71.73,154.88 72.16,154.45 72.64,154.05 C 73.98,154.83 75.44,155.32 77.04,155.5 C 79.16,155.05 81.28,155 83.4,155.35 C 83.81,155.02 84.18,154.65 84.51,154.22 C 84.85,154.67 85.21,155.1 85.59,155.52 C 86.5,154.96 87.45,154.51 88.45,154.18 C 89.06,154.9 89.45,155.74 89.63,156.7 C 89.87,156.18 90.16,155.7 90.51,155.26 C 91.07,155.55 91.67,155.7 92.3,155.72 C 93.08,155.33 93.82,154.86 94.51,154.32 C 94.92,154.65 95.29,155.03 95.62,155.46 C 96.42,155.21 97.19,155.28 97.93,155.66 C 98.35,155.96 98.53,156.37 98.47,156.89 C 98.4,157.72 98.03,158.37 97.36,158.84 C 92.81,158.87 88.25,158.81 83.68,158.65 C 83.16,158.29 82.73,157.83 82.41,157.26 C 82.15,157.79 81.86,158.3 81.54,158.79 C 81.22,158.26 80.89,157.73 80.56,157.22 C 80.22,157.72 79.88,158.23 79.53,158.73 C 79.22,158.18 78.86,157.67 78.47,157.18 C 78.03,157.51 77.65,157.9 77.34,158.36 C 76.66,158.43 75.99,158.59 75.35,158.86 C 73.71,158.56 72.05,158.33 70.39,158.18 C 68.11,158.79 65.81,159.04 63.48,158.93 C 60.76,158.22 60.25,156.75 61.94,154.5 C 63.61,153.54 64.66,153.97 65.09,155.79 Z M 104.36,155 C 104.72,154.63 105.14,154.35 105.63,154.17 C 106.91,154.09 107.15,154.58 106.35,155.63 C 106.55,156.04 106.88,156.16 107.32,156 C 107.67,155.76 108.04,155.56 108.43,155.39 C 108.8,155.82 109.15,156.27 109.47,156.74 C 110.52,155.54 111.86,154.97 113.5,155.04 C 114.55,154.86 115.54,155 116.5,155.46 C 118.83,155.24 121.16,155.08 123.49,154.98 C 123.98,155.47 124.32,156.06 124.53,156.74 C 124.94,156.33 125.31,155.88 125.64,155.4 C 125.95,155.44 126.25,155.52 126.53,155.63 C 126.92,155.19 127.32,154.77 127.73,154.35 C 128.68,154.62 129.59,155.01 130.47,155.51 C 131.13,155 131.81,154.51 132.53,154.02 C 133.12,153.95 133.69,154.05 134.22,154.31 C 134.58,154.85 135.03,155.25 135.58,155.52 C 136.42,154.95 137.34,154.58 138.32,154.41 C 139.4,154.85 140.46,155.32 141.51,155.82 C 142.52,155.37 143.51,154.88 144.48,154.35 C 144.89,154.71 145.27,155.09 145.64,155.49 C 146.42,155.11 147.14,155.19 147.8,155.72 C 148.17,156.58 148.17,157.44 147.79,158.3 C 147.51,158.71 147.12,158.91 146.62,158.89 C 144.93,158.88 143.22,158.75 141.51,158.49 C 139.91,158.74 138.28,158.87 136.65,158.9 C 134.8,158.71 132.94,158.54 131.07,158.39 C 130.51,158.56 129.94,158.72 129.37,158.87 C 126.72,158.94 124.08,158.79 121.47,158.43 C 121.14,158.03 120.81,157.63 120.47,157.23 C 120.15,157.63 119.84,158.04 119.54,158.46 C 118.99,158.51 118.45,158.62 117.91,158.78 C 113.81,158.93 109.7,158.96 105.58,158.86 C 104.99,158.38 104.84,157.76 105.12,156.99 C 104.83,156.34 104.58,155.68 104.36,155 Z"/></g>
<g><path fill="#3c4721" d="M 31.3,156.07 C 32.58,153.63 34.23,153.34 36.25,155.21 C 36.68,155.74 37.12,156.26 37.58,156.75 C 37.9,156.24 38.23,155.73 38.56,155.21 C 38.95,155.69 39.29,156.21 39.58,156.77 C 39.77,156.39 39.92,156 40.01,155.58 C 41.23,155.22 42.41,154.76 43.56,154.21 C 44.16,154.5 44.61,154.95 44.91,155.57 C 46.04,155.21 47.17,154.82 48.32,154.4 C 49.42,154.86 50.52,155.33 51.62,155.81 C 52.56,155.34 53.51,154.85 54.46,154.37 C 54.91,154.65 55.3,155 55.64,155.41 C 57.25,154.89 58.17,155.48 58.4,157.19 C 59.01,157.52 59.5,157.98 59.85,158.55 C 59.58,159.04 59.15,159.25 58.58,159.19 C 57.52,159.06 56.49,158.8 55.5,158.4 C 54.83,158.51 54.16,158.66 53.5,158.83 C 51.21,158.82 48.92,158.83 46.63,158.85 C 46.09,158.71 45.55,158.54 45.03,158.34 C 42.58,158.86 40.11,159.04 37.61,158.87 C 36.97,158.67 36.34,158.44 35.74,158.16 C 35.63,158.69 35.48,159.2 35.28,159.68 C 33.92,159.38 32.75,158.74 31.77,157.76 C 31.49,157.23 31.34,156.66 31.3,156.07 Z M 32.92,157.06 C 34.17,157.6 34.71,157.2 34.54,155.88 C 34.08,155.28 33.58,155.2 33.04,155.65 C 32.89,156.11 32.85,156.58 32.92,157.06 Z"/></g>
<g><path fill="#080e0d" d="M 23.22,129 C 23.21,128.26 23.27,127.53 23.4,126.81 C 23.65,126.38 24.03,126.16 24.53,126.16 C 26.07,125.98 27.57,126.11 29.03,126.57 C 30.25,127.59 30.51,128.82 29.8,130.25 C 29.16,130.85 28.41,131.15 27.52,131.14 C 26.22,131.28 24.94,131.18 23.68,130.85 C 23.26,130.31 23.1,129.69 23.22,129 Z M 107.01,139.01 C 107.56,137.98 108.43,137.43 109.62,137.37 C 110.52,137.28 111.42,137.25 112.33,137.27 C 112.89,137.47 113.16,137.87 113.12,138.49 C 112.68,140.36 111.47,141.29 109.49,141.26 C 107.86,141.37 107.04,140.62 107.01,139.01 Z M 32.92,157.06 C 32.77,156.34 32.96,155.75 33.48,155.28 C 34.62,155.54 34.9,156.16 34.31,157.15 C 33.83,157.44 33.36,157.41 32.92,157.06 Z"/></g>
<g><path fill="#52641f" stroke="#52641f" stroke-width="0.5" d="M 124.88,99.7 C 126.47,101.39 128.26,102.86 130.23,104.09 C 130.77,105.21 131.54,106.14 132.55,106.89 C 134.41,108.57 136.5,109.86 138.82,110.76 C 139.22,111.42 139.76,111.95 140.43,112.32 C 139.93,113.05 139.25,113.52 138.39,113.73 C 136.29,113.81 134.49,113.07 132.99,111.53 C 129.63,108.39 126.2,105.32 122.71,102.32 C 123.47,101.47 124.19,100.6 124.88,99.7 Z"/></g>
<g><path fill="#354217" d="M 84,148.02 C 84.1,147.68 84.33,147.48 84.68,147.41 C 85.52,147.67 86.37,147.77 87.23,147.7 C 87.56,147.11 87.98,146.62 88.5,146.23 C 89.13,146.85 89.81,147.4 90.53,147.88 C 92.96,146.91 93.55,147.58 92.28,149.91 C 89.98,151.86 87.62,151.96 85.21,150.23 C 84.74,149.53 84.33,148.79 84,148.02 Z"/></g>
<g><path fill="#3c491d" d="M 18.11,156.88 C 18.13,156.53 18.31,156.29 18.64,156.15 C 21.59,155.97 24.55,155.92 27.52,156.01 C 29.23,156.41 29.25,156.76 27.58,157.05 C 24.42,157.12 21.26,157.06 18.11,156.88 Z M 151.11,156.86 C 151.15,156.53 151.34,156.31 151.66,156.19 C 154.94,156 158.23,155.93 161.53,155.98 C 163.24,156.38 163.25,156.75 161.58,157.08 C 158.08,157.1 154.6,157.03 151.11,156.86 Z"/></g>
<g><path fill="#0b0f0e" d="M 109.95,116.93 C 110.85,115.67 111.89,115.54 113.05,116.55 C 113.45,118.52 112.67,119.3 110.72,118.89 C 110.2,118.35 109.94,117.7 109.95,116.93 Z"/></g>
<g><path fill="#4a5525" d="M 99.99,157 C 100.16,155.71 100.87,155.22 102.13,155.52 C 102.91,156.16 103.01,156.91 102.42,157.77 C 101.18,159.03 100.38,158.77 99.99,157 Z"/></g>
<g><path fill="#050a0d" d="M 65.09,155.79 C 64.97,156.53 64.6,157.1 63.96,157.5 C 63.43,157.63 63.02,157.45 62.75,156.97 C 62.32,155.8 62.75,155.24 64.02,155.3 C 64.42,155.37 64.77,155.53 65.09,155.79 Z"/></g>
<g><path fill="#394b17" d="M 99.85,90.33 C 100.19,88.93 101.06,88.16 102.46,88 C 102.57,88.13 102.67,88.27 102.78,88.4 C 102.25,89.74 101.27,90.39 99.85,90.33 Z"/></g>
<g><path fill="#171613" d="M 122.07,116.97 C 122.37,115.91 122.93,115.77 123.75,116.56 C 123.28,116.98 122.72,117.12 122.07,116.97 Z"/></g>
<g><path fill="#000000" d="M 78.96,116.77 C 79.09,116.13 79.39,116.02 79.86,116.45 C 79.66,116.79 79.36,116.9 78.96,116.77 Z"/></g>
<g><path fill="#0c0f0e" d="M 152.55,139.01 C 152.99,138.14 153.69,137.6 154.66,137.41 C 155.6,137.27 156.55,137.22 157.51,137.26 C 158.03,137.19 158.45,137.36 158.75,137.77 C 158.77,139.94 157.67,141.12 155.47,141.29 C 153.7,141.49 152.72,140.73 152.55,139.01 Z"/></g>
</svg>
