<svg xmlns="http://www.w3.org/2000/svg" viewBox="0 0 128 128" role="img" aria-label="Inspetor BudGanja">
  <defs>
    <linearGradient id="bg" x1="20" y1="12" x2="108" y2="116" gradientUnits="userSpaceOnUse">
      <stop offset="0%" stop-color="#356b42"/>
      <stop offset="45%" stop-color="#1a3324"/>
      <stop offset="100%" stop-color="#0a140d"/>
    </linearGradient>
    <linearGradient id="leaf" x1="44" y1="88" x2="84" y2="28" gradientUnits="userSpaceOnUse">
      <stop offset="0%" stop-color="#1e8449"/>
      <stop offset="55%" stop-color="#27ae60"/>
      <stop offset="100%" stop-color="#58d68d"/>
    </linearGradient>
    <radialGradient id="lens" cx="50%" cy="50%" r="50%">
      <stop offset="0%" stop-color="#142218" stop-opacity="0.2"/>
      <stop offset="100%" stop-color="#050a07" stop-opacity="0.55"/>
    </radialGradient>
  </defs>
  <rect width="128" height="128" rx="28" fill="url(#bg)"/>
  <rect x="8" y="8" width="112" height="112" rx="22" fill="none" stroke="#3d5c28" stroke-width="1.5" opacity="0.45"/>
  <path fill="url(#leaf)" d="M64 96c-8-10-26-18-38-14 6-18 18-30 38-36 20 6 32 18 38 36-12-4-30 4-38 14zm0-46c-16 4-26 14-30 28 10-2 20-8 30-16 10 8 20 14 30 16-4-14-14-24-30-28z"/>
  <path fill="none" stroke="#1a5c34" stroke-width="2" stroke-linecap="round" d="M64 50v46M64 62c-14-2-22 6-20 18M64 62c14-2 22 6 20 18M64 72c-10-1-16 5-14 14M64 72c10-1 16 5 14 14"/>
  <circle cx="50" cy="52" r="31" fill="none" stroke="#2d4a32" stroke-width="4" opacity="0.7"/>
  <circle cx="50" cy="52" r="27" fill="url(#lens)" stroke="#2ecc71" stroke-width="4"/>
  <line x1="70" y1="72" x2="98" y2="100" stroke="#27ae60" stroke-width="10" stroke-linecap="round"/>
  <circle cx="100" cy="28" r="17" fill="#e67e22"/>
  <circle cx="100" cy="28" r="17" fill="none" stroke="#f5b041" stroke-width="2"/>
  <path fill="none" stroke="#fff" stroke-width="4" stroke-linecap="round" stroke-linejoin="round" d="M92 28l6 6 14-14"/>
</svg>
