<svg xmlns="http://www.w3.org/2000/svg" viewBox="0 0 128 128" role="img" aria-label="Flor">
  <circle cx="64" cy="64" r="64" fill="#1a3324"/>
  <path d="M64 34c-6 8-10 18-10 28 0 6 2 10 6 12-4 6-6 14-6 22 0 10 8 18 18 18s18-8 18-18c0-8-2-16-6-22 4-2 6-6 6-12 0-10-4-20-10-28-6 6-10 14-10 22 0-8-4-16-10-22z" fill="#27ae60"/>
  <path d="M64 48c-8 4-12 12-12 20 0 4 1 7 3 9 2-6 5-11 9-15-4 2-7 5-9 9 2-8 6-14 12-18-6 4-10 10-12 18 2-4 5-7 9-9-4 4-7 9-9 15 2-2 3-5 3-9 0-8-4-16-12-20z" fill="#2ecc71" opacity=".85"/>
  <circle cx="64" cy="86" r="6" fill="#f39c12"/>
</svg>
