<svg xmlns="http://www.w3.org/2000/svg" viewBox="0 0 128 128" role="img" aria-label="Flor">
  <defs>
    <linearGradient id="g" x1="28" y1="18" x2="100" y2="112" gradientUnits="userSpaceOnUse">
      <stop stop-color="#f0d78c"/><stop offset="1" stop-color="#c9a227"/>
    </linearGradient>
  </defs>
  <rect width="128" height="128" rx="28" fill="#121212"/>
  <rect x="6" y="6" width="116" height="116" rx="24" fill="none" stroke="url(#g)" stroke-width="2.5"/>
  <path d="M64 30c-8 14-22 22-22 38 0 14 10 24 22 24s22-10 22-24c0-16-14-24-22-38z" fill="url(#g)"/>
  <path d="M46 52c-10 6-16 16-14 28 10-2 18-10 22-20-2 12 2 22 10 28 4-10 4-22-2-32 8 8 18 10 28 8-8-8-18-14-30-12-4-8-8-14-14-20z" fill="#3d7a4a"/>
  <circle cx="64" cy="62" r="6" fill="#1a1a1a" opacity=".35"/>
</svg>
