<svg xmlns="http://www.w3.org/2000/svg" viewBox="0 0 128 128" role="img" aria-label="Inspetor">
  <defs>
    <linearGradient id="g" x1="20" y1="12" x2="108" y2="116" gradientUnits="userSpaceOnUse">
      <stop stop-color="#f0d78c"/><stop offset="1" stop-color="#b8922a"/>
    </linearGradient>
  </defs>
  <rect width="128" height="128" rx="28" fill="#121212"/>
  <rect x="6" y="6" width="116" height="116" rx="24" fill="none" stroke="url(#g)" stroke-width="3"/>
  <path d="M34 58c0-18 13-34 30-34s30 16 30 34v8c0 4-3 7-7 7H41c-4 0-7-3-7-7v-8z" fill="url(#g)"/>
  <path d="M40 52c4-10 12-16 24-16s20 6 24 16" fill="none" stroke="#1a1a1a" stroke-width="2" opacity=".35"/>
  <path d="M64 48c-12 10-18 22-18 32 0 6 4 10 10 10 6 0 8-5 8-11 0-7 5-13 12-18-6 3-10 8-12 14 5-8 13-14 22-16-5 8-7 16-7 24 0 8 5 13 12 13s11-6 11-14c0-12-8-24-20-34z" fill="#1f3d24"/>
  <path d="M64 48c-12 10-18 22-18 32 0 6 4 10 10 10 6 0 8-5 8-11 0-7 5-13 12-18-6 3-10 8-12 14 5-8 13-14 22-16-5 8-7 16-7 24 0 8 5 13 12 13s11-6 11-14c0-12-8-24-20-34z" fill="url(#g)" opacity=".9"/>
</svg>
