<svg xmlns="http://www.w3.org/2000/svg" viewBox="0 0 128 128" role="img" aria-label="Folha">
  <defs>
    <linearGradient id="g" x1="24" y1="16" x2="104" y2="112" gradientUnits="userSpaceOnUse">
      <stop stop-color="#6fdb8c"/><stop offset="1" stop-color="#2e7d46"/>
    </linearGradient>
  </defs>
  <rect width="128" height="128" rx="28" fill="#121212"/>
  <rect x="6" y="6" width="116" height="116" rx="24" fill="none" stroke="#3d5c28" stroke-width="2.5"/>
  <path d="M64 22c-22 20-34 42-34 60 0 14 10 24 22 24 10 0 16-8 16-18 0-10 6-18 14-24-8 4-12 10-14 18 8-12 20-20 34-22-8 12-12 24-12 36 0 14 8 22 18 22s18-10 18-22C112 68 96 42 64 22z" fill="url(#g)"/>
  <path d="M64 40v52" stroke="#0f2416" stroke-width="3" stroke-linecap="round" opacity=".45"/>
</svg>
